<?xml version="1.0" encoding="utf-8"?>
<svg xmlns="http://www.w3.org/2000/svg" xmlns:ev="http://www.w3.org/2001/xml-events" xmlns:xlink="http://www.w3.org/1999/xlink" version="1.1" baseProfile="full" width="6449.0" height="1229.0" viewBox="38.0 -1208.0 6449.0 1229.0">
<defs/>
<g><path d="M 467.000000 -116.000000 C 467.000000 -126.000000 468.333333 -136.333333 471.000000 -147.000000 C 474.333333 -157.666667 482.333333 -163.000000 495.000000 -163.000000 C 501.000000 -163.000000 516.666667 -159.666667 542.000000 -153.000000 C 568.000000 -146.333333 596.000000 -138.333333 626.000000 -129.000000 C 656.000000 -120.333333 685.333333 -112.333333 714.000000 -105.000000 C 743.333333 -97.666667 763.333333 -93.333333 774.000000 -92.000000 C 777.333333 -92.000000 780.666667 -92.000000 784.000000 -92.000000 C 838.666667 -92.000000 894.000000 -102.333333 950.000000 -123.000000 C 1006.666667 -143.666667 1058.000000 -172.666667 1104.000000 -210.000000 C 1150.666667 -247.333333 1188.666667 -290.666667 1218.000000 -340.000000 C 1247.333333 -389.333333 1262.000000 -443.000000 1262.000000 -501.000000 C 1262.000000 -545.666667 1253.000000 -589.666667 1235.000000 -633.000000 C 1217.666667 -676.333333 1194.333333 -718.000000 1165.000000 -758.000000 C 1135.666667 -798.000000 1101.333333 -834.666667 1062.000000 -868.000000 C 1022.666667 -902.000000 981.000000 -932.333333 937.000000 -959.000000 C 893.666667 -985.666667 849.333333 -1008.333333 804.000000 -1027.000000 C 759.333333 -1046.333333 716.333333 -1059.666667 675.000000 -1067.000000 C 676.333333 -987.000000 683.000000 -911.333333 695.000000 -840.000000 C 707.000000 -768.666667 718.666667 -700.000000 730.000000 -634.000000 C 742.000000 -568.666667 751.333333 -505.000000 758.000000 -443.000000 C 765.333333 -380.333333 765.333333 -317.666667 758.000000 -255.000000 C 758.000000 -247.666667 758.000000 -239.666667 758.000000 -231.000000 C 758.000000 -223.000000 756.333333 -215.000000 753.000000 -207.000000 C 749.666667 -199.000000 744.666667 -192.333333 738.000000 -187.000000 C 731.333333 -182.333333 723.000000 -180.000000 713.000000 -180.000000 C 693.666667 -170.000000 679.000000 -173.666667 669.000000 -191.000000 C 659.000000 -209.000000 651.333333 -235.666667 646.000000 -271.000000 C 641.333333 -306.333333 638.333333 -348.333333 637.000000 -397.000000 C 636.333333 -446.333333 634.333333 -497.333333 631.000000 -550.000000 C 627.666667 -603.333333 623.333333 -655.666667 618.000000 -707.000000 C 613.333333 -758.333333 605.333333 -805.333333 594.000000 -848.000000 C 592.000000 -862.666667 589.000000 -881.666667 585.000000 -905.000000 C 581.000000 -929.000000 576.000000 -953.666667 570.000000 -979.000000 C 564.000000 -1005.000000 556.666667 -1029.000000 548.000000 -1051.000000 C 540.000000 -1073.000000 531.666667 -1089.000000 523.000000 -1099.000000 C 433.000000 -1099.000000 361.000000 -1096.000000 307.000000 -1090.000000 C 253.666667 -1084.666667 211.000000 -1078.000000 179.000000 -1070.000000 C 147.000000 -1062.666667 123.666667 -1055.000000 109.000000 -1047.000000 C 95.000000 -1039.000000 82.333333 -1032.666667 71.000000 -1028.000000 C 70.000000 -1027.333333 69.000000 -1026.666667 68.000000 -1026.000000 C 65.333333 -1024.666667 63.333333 -1024.000000 62.000000 -1024.000000 C 59.333333 -1024.000000 58.000000 -1024.666667 58.000000 -1026.000000 C 56.666667 -1027.333333 55.333333 -1028.000000 54.000000 -1028.000000 C 53.333333 -1028.666667 52.333333 -1031.000000 51.000000 -1035.000000 C 49.666667 -1039.000000 48.000000 -1043.666667 46.000000 -1049.000000 C 44.000000 -1055.000000 42.000000 -1061.000000 40.000000 -1067.000000 C 38.666667 -1073.000000 38.000000 -1077.333333 38.000000 -1080.000000 C 38.000000 -1082.666667 38.000000 -1085.333333 38.000000 -1088.000000 C 38.000000 -1105.333333 47.000000 -1120.000000 65.000000 -1132.000000 C 83.000000 -1144.666667 105.333333 -1155.333333 132.000000 -1164.000000 C 159.333333 -1173.333333 189.000000 -1180.666667 221.000000 -1186.000000 C 253.666667 -1191.333333 284.000000 -1195.333333 312.000000 -1198.000000 C 340.000000 -1200.666667 363.666667 -1203.000000 383.000000 -1205.000000 C 403.000000 -1207.000000 413.333333 -1208.000000 414.000000 -1208.000000 C 478.000000 -1208.000000 546.333333 -1200.666667 619.000000 -1186.000000 C 691.666667 -1171.333333 763.000000 -1150.333333 833.000000 -1123.000000 C 903.666667 -1095.666667 971.333333 -1061.666667 1036.000000 -1021.000000 C 1100.666667 -980.333333 1157.666667 -933.666667 1207.000000 -881.000000 C 1256.333333 -829.000000 1295.666667 -770.333333 1325.000000 -705.000000 C 1354.333333 -640.333333 1369.000000 -570.333333 1369.000000 -495.000000 C 1369.000000 -426.333333 1358.333333 -364.333333 1337.000000 -309.000000 C 1315.666667 -254.333333 1286.333333 -206.333333 1249.000000 -165.000000 C 1211.666667 -123.666667 1168.000000 -89.000000 1118.000000 -61.000000 C 1068.000000 -33.000000 1014.666667 -12.333333 958.000000 1.000000 C 902.000000 14.333333 844.333333 21.000000 785.000000 21.000000 C 725.666667 21.000000 667.666667 14.000000 611.000000 0.000000 C 599.666667 -4.000000 586.000000 -9.333333 570.000000 -16.000000 C 554.000000 -22.666667 538.000000 -30.333333 522.000000 -39.000000 C 506.666667 -48.333333 493.666667 -59.333333 483.000000 -72.000000 C 472.333333 -85.333333 467.000000 -100.000000 467.000000 -116.000000z "/>
</g></svg>
